<?xml version="1.0" encoding="UTF-8" standalone="no"?>
<svg xmlns="http://www.w3.org/2000/svg" viewBox="0 0 100 100">
   <g id="layer1">
      <g aria-label="Aidan Byrne" transform="matrix(2,0,0,2,-65,-175)">
         <path
            d="m 40.678919,120.6999 2.762241,0.0106 c -0.127,0.11641 -0.169333,0.15875 -0.349249,0.33866 -2.592908,2.62466 -3.947571,3.56657 -5.894898,3.56657 -1.217079,0 -1.841494,-0.52916 -1.841494,-1.54516 0,-1.36524 1.301746,-2.53999 2.772824,-2.53999 0.878414,0 1.354663,0.34925 1.354663,1.016 0,0.91016 -1.079497,1.76741 -2.338909,1.84149 v 0.0953 c 1.396995,-0.0953 2.550575,-0.96308 2.550575,-1.92616 0,-0.70908 -0.560915,-1.13241 -1.513412,-1.13241 -1.693328,0 -3.217323,1.20649 -3.217323,2.53999 0,1.10066 0.825497,1.75683 2.233076,1.75683 0.96308,0 2.296576,-0.0741 4.815401,-2.38125 1.407579,-1.28058 1.661578,-1.62982 1.661578,-1.62982 h 1.545162 c -0.444498,0.66674 -1.269996,1.80974 -1.269996,2.8469 0,0.75142 0.412749,1.16417 1.15358,1.16417 1.05833,0 2.423576,-1.17475 2.423576,-2.12725 0,-0.40216 -0.264583,-0.71966 -0.645582,-0.71966 -0.539748,0 -1.100663,0.41275 -1.481662,1.11125 l 0.05292,0.0212 c 0.423332,-0.66675 0.93133,-1.03716 1.407579,-1.03716 0.317499,0 0.497415,0.22225 0.497415,0.5715 0,0.79374 -1.24883,2.09549 -2.233076,2.09549 -0.507999,0 -0.761998,-0.22225 -0.761998,-0.64558 0,-0.58208 0.222249,-1.19591 0.804331,-2.20133 0.253999,-0.45508 0.370415,-0.635 0.677331,-1.07949 l 1.217079,-0.0317 c 0.232833,-0.0106 0.370416,-0.0212 0.698498,-0.0423 l 0.04233,-0.0529 c -0.560915,0 -0.793747,0 -1.259412,-0.0212 -0.253999,0 -0.402166,-0.0212 -0.603248,-0.0212 l 0.93133,-1.20649 c 0.99483,-1.3335 2.11666,-2.31775 2.11666,-2.83633 0,-0.127 -0.116416,-0.23283 -0.264583,-0.23283 l -0.03175,0.0106 c -0.476249,0.0318 -1.820328,1.06892 -2.296576,1.48167 -0.603249,0.50799 -1.619245,1.48166 -2.825742,2.80457 h -2.233076 c -0.169333,0 -0.285749,0 -0.592665,0.0212 z m 7.196643,-3.09032 c -0.857247,0.889 -1.756827,1.89441 -2.148409,2.39182 l -0.391582,0.52917 h -1.502829 c 0.888997,-0.97366 1.269996,-1.397 1.830911,-1.93674 1.428745,-1.35467 2.677575,-2.23308 3.01624,-2.23308 0.09525,0 0.137583,0.0318 0.137583,0.11642 0,0.17991 -0.359832,0.51858 -0.952497,1.13241 z"
            style="stroke-width:0.264583"
            id="path14"
            class=" letter one" />
         <path
            d="m 47.896715,124.77447 c 0.507999,0 1.174746,-0.59266 1.449912,-0.83608 l -0.08467,-0.11641 c -0.391582,0.38099 -0.941914,0.74083 -1.132413,0.74083 -0.07408,0 -0.116417,-0.0529 -0.116417,-0.0952 0,-0.0318 0.02117,-0.0847 0.04233,-0.11642 l 0.825497,-1.09008 h -0.444499 c -0.158749,0.1905 -0.232832,0.26458 -0.433915,0.45508 -0.169333,0.15875 -0.190499,0.1905 -0.338665,0.3175 l 0.05292,0.0635 0.137583,-0.0847 -0.116416,0.17991 c -0.09525,0.13758 -0.148167,0.22225 -0.148167,0.3175 0,0.16933 0.116417,0.26458 0.306916,0.26458 z m 2.031994,-3.00565 c 0,-0.127 -0.0635,-0.17992 -0.1905,-0.17992 -0.179916,0 -0.306915,0.11642 -0.306915,0.27517 0,0.11641 0.0635,0.17991 0.201082,0.17991 0.15875,0 0.296333,-0.11641 0.296333,-0.27516 z"
            style="stroke-width:0.264583"
            id="path16"
            class="letter two" />
         <path
            d="m 50.330871,123.37748 c 0.07408,0 0.116417,0.0529 0.116417,0.127 0,0.127 -0.127,0.35983 -0.338666,0.61383 -0.211666,0.254 -0.465665,0.42333 -0.624415,0.42333 -0.07408,0 -0.105833,-0.0106 -0.105833,-0.0847 0,-0.11641 0.07408,-0.26458 0.232833,-0.49741 0.179916,-0.26458 0.465665,-0.58208 0.719664,-0.58208 z m -0.137583,1.39699 c 0.433916,0 1.354663,-0.74083 1.460496,-0.83608 l -0.08467,-0.11641 c -0.370415,0.37041 -0.920747,0.71966 -1.111246,0.71966 -0.07408,0 -0.09525,-0.0318 -0.09525,-0.0847 0,-0.0318 0.01058,-0.0635 0.04233,-0.11641 0,0 0.888998,-1.4605 0.952497,-1.53458 0.539749,-0.43392 0.740831,-0.61383 1.100664,-0.94191 0.486831,-0.41275 1.100663,-1.00542 1.206496,-1.12183 0.338665,-0.37042 0.687914,-0.77259 0.687914,-1.0795 0,-0.14817 -0.08467,-0.23283 -0.211666,-0.23283 -0.169333,0 -0.349249,0.0952 -0.624414,0.3175 -0.254,0.21166 -0.687915,0.63499 -0.984247,0.94191 -0.444499,0.47625 -0.878414,1.10066 -1.375829,1.86266 l -0.560915,0.84666 c -0.03175,-0.11641 -0.105833,-0.17991 -0.222249,-0.17991 -0.275166,0 -0.740831,0.24341 -1.026581,0.51858 -0.243415,0.23283 -0.412748,0.53975 -0.412748,0.73025 0,0.1905 0.116416,0.30691 0.306915,0.30691 0.211666,0 0.412749,-0.0847 0.740831,-0.3175 -0.03175,0.0741 -0.05292,0.10584 -0.05292,0.127 0,0.13759 0.105833,0.1905 0.264582,0.1905 z m 2.169577,-3.02682 c -0.317499,0.29633 -0.433915,0.41275 -0.772581,0.6985 0.338666,-0.51858 0.486832,-0.70908 0.888997,-1.23825 0.582082,-0.78316 0.888997,-1.13241 1.142997,-1.35466 0.137582,-0.11642 0.253999,-0.1905 0.328082,-0.1905 0.05292,0 0.0635,0.0318 0.0635,0.0847 0,0.10583 -0.169333,0.39158 -0.497415,0.78316 -0.243416,0.29633 -0.698498,0.79375 -1.15358,1.21708 z"
            style="stroke-width:0.264583"
            id="path18"
            class="letter three" />
         <path
            d="m 54.035009,123.93839 -0.08467,-0.11641 c -0.412749,0.40216 -0.973664,0.74083 -1.195913,0.74083 -0.0635,0 -0.105833,-0.0318 -0.105833,-0.0741 0,-0.0529 0.03175,-0.0953 0.116416,-0.21166 l 0.740831,-1.016 h -0.328082 l -0.285749,0.28575 c 0.01058,-0.0741 0.01058,-0.10583 0.01058,-0.13758 0,-0.127 -0.07408,-0.1905 -0.232832,-0.1905 -0.254,0 -0.730248,0.23283 -1.015997,0.51858 -0.243416,0.23283 -0.402166,0.52916 -0.402166,0.73025 0,0.1905 0.116417,0.30691 0.296333,0.30691 0.211666,0 0.412748,-0.0847 0.740831,-0.3175 -0.03175,0.0741 -0.05292,0.10584 -0.05292,0.14817 0,0.0952 0.105833,0.16933 0.253999,0.16933 0.698498,0 1.545162,-0.83608 1.545162,-0.83608 z m -1.396995,-0.56091 c 0.07408,0 0.116416,0.0529 0.116416,0.127 0,0.127 -0.127,0.34925 -0.338666,0.61383 -0.201082,0.254 -0.455082,0.42333 -0.613831,0.42333 -0.07408,0 -0.116416,-0.0318 -0.116416,-0.10583 0,-0.15875 0.211666,-0.52917 0.465665,-0.762 0.169333,-0.16933 0.370415,-0.29633 0.486832,-0.29633 z"
            style="stroke-width:0.264583"
            id="path20"
            class="letter four" />
         <path
            d="m 56.532653,123.93839 -0.08467,-0.11641 c -0.127,0.11641 -0.857248,0.74083 -1.111247,0.74083 -0.0635,0 -0.09525,-0.0318 -0.09525,-0.0952 0,-0.0529 0.0635,-0.14817 0.211666,-0.34925 l 0.275166,-0.37042 c 0.0635,-0.0952 0.116416,-0.1905 0.116416,-0.29633 0,-0.14817 -0.105833,-0.23283 -0.275165,-0.23283 -0.22225,0 -0.550332,0.24341 -1.02658,0.62441 l -0.105833,0.0847 0.391582,-0.66675 h -0.349249 c -0.105833,0.14817 -0.179916,0.22225 -0.423332,0.45508 -0.148166,0.14817 -0.1905,0.1905 -0.338666,0.3175 l 0.05292,0.0635 0.275166,-0.15875 -0.518582,0.79375 h 0.412749 c 0.232832,-0.34925 0.560914,-0.70908 0.920747,-0.99483 0.264582,-0.21167 0.476248,-0.32808 0.571498,-0.32808 0.02117,0 0.05292,0.0212 0.05292,0.0423 0,0.0529 -0.0635,0.13758 -0.222249,0.32808 -0.412749,0.47625 -0.486832,0.5715 -0.486832,0.73025 0,0.16933 0.116417,0.26458 0.317499,0.26458 0.550332,0 1.322913,-0.74083 1.439329,-0.83608 z"
            style="stroke-width:0.264583"
            id="path22"
            class="letter five" />
         <path
            d="m 69.423084,120.80574 c 0.264583,0.22224 0.444499,0.69849 0.444499,1.14299 0,0.91017 -0.931331,2.86808 -2.973908,2.86808 -0.529165,0 -0.910163,-0.254 -0.910163,-0.635 0,-0.79375 1.185329,-1.50283 2.614075,-1.56633 v -0.0847 h -0.09525 c -1.396996,0 -2.730491,0.79375 -2.730491,1.64041 0,0.47625 0.465665,0.77259 1.174746,0.77259 1.841494,0 3.386656,-1.524 3.386656,-2.86808 0,-0.5715 -0.222249,-0.98425 -0.709081,-1.37583 0.888997,-0.55033 1.396995,-1.30174 1.396995,-2.04257 0,-0.48684 -0.285749,-0.97367 -0.709081,-1.28058 0.804331,-0.4445 1.566329,-0.68792 2.254243,-0.68792 0.730248,0 1.132413,0.26458 1.15358,0.78317 l 0.07408,-0.0106 c -0.01058,-0.5715 -0.465665,-0.86783 -1.322913,-0.86783 -0.698497,0 -1.545161,0.24342 -2.360075,0.68792 -0.402166,-0.16934 -0.634998,-0.22225 -0.973664,-0.22225 H 68.60817 c -0.444499,0 -0.740831,-0.0953 -0.825497,-0.27517 0,0 0.01058,-0.23283 0.01058,-0.254 0,-0.127 -0.04233,-0.21166 -0.127,-0.21166 -0.09525,0 -0.169332,0.0847 -0.169332,0.22225 0,0.0847 0.0635,0.28574 0.0635,0.30691 0,0.22225 -0.793747,1.397 -2.645825,2.33891 l -0.793747,0.40217 c -0.804331,0.40216 -1.873244,1.06891 -2.412992,1.49224 -0.211666,0.15875 -0.444499,0.37042 -0.687915,0.635 -0.709081,0.74083 -1.05833,1.44991 -1.05833,2.12724 0,0.762 0.571498,1.27 1.439329,1.27 2.063743,0 4.04282,-1.8415 5.10115,-3.43957 l 0.730248,-1.09008 c 1.386412,-2.08491 2.370659,-2.76225 2.878658,-3.10091 0.338665,0.26458 0.476248,0.56091 0.476248,1.03716 0,0.84667 -0.423332,1.651 -1.12183,2.11666 -0.338665,-0.15875 -0.539748,-0.21166 -0.825497,-0.21166 -0.582082,0 -1.12183,0.24341 -1.12183,0.47625 0,0.17991 0.169333,0.26458 0.486832,0.26458 0.571498,0 1.100663,-0.20109 1.428745,-0.34925 z m -0.391582,-3.60891 c 0.412749,0.0106 0.634998,0.0635 0.910164,0.1905 -1.037164,0.62441 -2.423576,1.98966 -3.280823,3.19616 l -1.005414,1.40757 c -0.952497,1.3335 -2.127243,2.38125 -3.132656,2.80458 -0.317499,0.127 -0.719665,0.20108 -1.068914,0.20108 -0.814914,0 -1.301745,-0.40216 -1.301745,-1.10066 0,-0.83608 0.952497,-2.59291 4.000487,-4.15924 0.09525,-0.0423 2.836324,-1.30174 3.555989,-2.75166 0.211666,0.13759 0.391582,0.16934 0.846664,0.1905 z m -0.433915,3.34432 c 0.296332,0 0.476248,0.0423 0.719664,0.16934 -0.486832,0.23283 -0.857247,0.32808 -1.259413,0.32808 -0.179916,0 -0.285749,-0.0529 -0.285749,-0.15875 0,-0.17992 0.370416,-0.33867 0.825498,-0.33867 z"
            style="stroke-width:0.264583"
            id="path24"
            class="letter six" />
         <path
            d="m 70.301478,124.50989 c 0,0.20108 0.09525,0.26458 0.317499,0.26458 0.190499,0 0.370415,-0.0847 0.603248,-0.23283 l 0.148166,-0.0953 c -0.05292,0.0847 -0.645581,0.98425 -0.730247,1.13241 l -0.677332,0.58209 c -0.486831,0.41274 -1.841494,1.59807 -2.381242,2.3389 -0.275166,0.381 -0.433915,0.70909 -0.433915,0.97367 0,0.22225 0.126999,0.37041 0.328082,0.37041 0.370415,0 0.888997,-0.40216 1.513412,-1.15358 0.603248,-0.73024 1.291162,-1.77799 2.042577,-3.13265 l 2.08491,-1.61925 -0.08467,-0.11641 -1.809744,1.41816 c 0.455082,-0.73025 0.571498,-0.889 1.005413,-1.44991 0.243416,-0.1905 0.423332,-0.39159 0.423332,-0.508 0,-0.0423 -0.03175,-0.0741 -0.105833,-0.0741 -0.158749,0 -0.328082,0.0741 -0.455081,0.23284 l -0.317499,0.41275 c -0.169333,0.22225 -0.402166,0.42333 -0.624415,0.57149 -0.169333,0.11642 -0.296332,0.17992 -0.349249,0.17992 -0.07408,0 -0.105833,-0.0423 -0.105833,-0.0953 0,-0.0529 0.03175,-0.10583 0.137583,-0.24342 l 0.751414,-1.00541 h -0.444498 c -0.116417,0.14817 -0.179916,0.22225 -0.423332,0.45508 -0.15875,0.14817 -0.1905,0.20109 -0.338666,0.3175 l 0.05292,0.0635 0.158749,-0.0952 c -0.0635,0.10583 -0.285749,0.28575 -0.285749,0.508 z m 0.116416,1.44991 -0.89958,1.51341 c -0.857247,1.43933 -1.471079,2.159 -1.883828,2.159 -0.116416,0 -0.190499,-0.0741 -0.190499,-0.1905 0,-0.22225 0.264583,-0.67733 0.666748,-1.17475 0.317499,-0.40216 1.693328,-1.84149 2.307159,-2.30716 z"
            style="stroke-width:0.264583"
            id="path26"
            class="letter seven" />
         <path
            d="m 75.000445,123.93839 -0.08467,-0.11641 c -0.412748,0.40216 -0.952497,0.74083 -1.185329,0.74083 -0.0635,0 -0.09525,-0.0318 -0.09525,-0.0741 0,-0.0847 0.412749,-0.61383 0.529165,-0.78316 0.07408,-0.10583 0.148166,-0.22225 0.148166,-0.29633 0,-0.127 -0.08467,-0.20109 -0.222249,-0.20109 -0.05292,0 -0.148166,0.0106 -0.148166,0.0106 -0.02117,0 -0.04233,-0.0106 -0.04233,-0.0423 0,-0.0318 0.03175,-0.0529 0.05292,-0.0952 0.01058,-0.0212 0.02117,-0.0529 0.02117,-0.10583 0,-0.0952 -0.07408,-0.14816 -0.169333,-0.14816 -0.169333,0 -0.328082,0.15875 -0.328082,0.33866 0,0.0741 0.02117,0.127 0.07408,0.15875 -0.15875,0.1905 -0.296333,0.30692 -0.518582,0.49742 l 0.08467,0.11641 c 0.179916,-0.14816 0.370416,-0.30691 0.560915,-0.56091 0.09525,0 0.1905,-0.0106 0.232833,-0.0106 0.03175,0 0.05292,0.0106 0.05292,0.0635 0,0.0423 -0.04233,0.10584 -0.253999,0.30692 -0.402165,0.40216 -0.529165,0.5715 -0.529165,0.77258 0,0.16933 0.116416,0.26458 0.296333,0.26458 0.380998,0 0.878413,-0.34925 1.523995,-0.83608 z"
            style="stroke-width:0.264583"
            id="path28"
            class="letter eight" />
         <path
            d="m 77.498099,123.93839 -0.08467,-0.11641 c -0.127,0.11641 -0.857247,0.74083 -1.111246,0.74083 -0.0635,0 -0.09525,-0.0318 -0.09525,-0.0952 0,-0.0529 0.0635,-0.14817 0.211666,-0.34925 l 0.275166,-0.37042 c 0.0635,-0.0952 0.116416,-0.1905 0.116416,-0.29633 0,-0.14817 -0.105833,-0.23283 -0.275166,-0.23283 -0.222249,0 -0.550331,0.24341 -1.02658,0.62441 l -0.105833,0.0847 0.391582,-0.66675 h -0.349249 c -0.105833,0.14817 -0.179916,0.22225 -0.423332,0.45508 -0.148166,0.14817 -0.190499,0.1905 -0.338665,0.3175 l 0.05292,0.0635 0.275166,-0.15875 -0.518582,0.79375 h 0.412749 c 0.232833,-0.34925 0.560915,-0.70908 0.920747,-0.99483 0.264583,-0.21167 0.476249,-0.32808 0.571498,-0.32808 0.02117,0 0.05292,0.0212 0.05292,0.0423 0,0.0529 -0.0635,0.13758 -0.22225,0.32808 -0.412748,0.47625 -0.486831,0.5715 -0.486831,0.73025 0,0.16933 0.116416,0.26458 0.317499,0.26458 0.550331,0 1.322912,-0.74083 1.439328,-0.83608 z"
            style="stroke-width:0.264583"
            id="path30"
            class="letter nine" />
         <path
            d="m 79.159657,123.93839 -0.08467,-0.11641 c -0.444499,0.42333 -0.952497,0.74083 -1.238246,0.74083 -0.158749,0 -0.232833,-0.0635 -0.232833,-0.21167 0,-0.0529 0.02117,-0.0847 0.03175,-0.127 0.984247,-0.48683 1.164163,-0.62441 1.164163,-0.84666 0,-0.11642 -0.09525,-0.15875 -0.232832,-0.15875 -0.317499,0 -0.814914,0.24341 -1.12183,0.5715 -0.211666,0.23283 -0.306916,0.44449 -0.306916,0.64558 0,0.22225 0.148166,0.33866 0.433916,0.33866 0.550331,0 1.280579,-0.5715 1.587494,-0.83608 z m -0.656164,-0.48683 c 0,0.13758 -0.285749,0.33867 -0.740831,0.52917 0.201083,-0.30692 0.507998,-0.60325 0.666748,-0.60325 0.0635,0 0.07408,0.0317 0.07408,0.0741 z"
            style="stroke-width:0.264583"
            id="path32"
            class="letter ten" />
      </g>
   </g>
</svg>
