<?xml version="1.0" encoding="UTF-8" standalone="no"?>
<svg xmlns="http://www.w3.org/2000/svg" viewBox="0 0 100 100">
   <g id="layer1">
      <g aria-label="Full Stack Web Developer" transform="matrix(1.5,0,0,1.5,-100,-140)">
         <path
            d="m 15.546047,108.72262 c 0.39,-0.702 0.806,-1.378 1.612,-2.6 0.962,-1.456 1.456,-2.106 2.106,-2.678 0.13,-0.13 0.338,-0.286 0.52,-0.468 0.338,0.026 0.468,0.026 0.65,0.026 2.132,0 3.874,-1.04 3.874,-1.612 0,-0.26 -0.208,-0.416 -0.52,-0.416 -0.572,0 -1.56,0.234 -2.47,0.65 -0.598,0.26 -0.91,0.494 -1.742,1.04 -1.092,-0.208 -1.508,-0.52 -2.418,-1.69 -1.378,-1.741997 -2.21,-2.521997 -3.302,-3.093997 -1.222,-0.624 -2.756,-0.988 -4.29,-0.988 -3.952,0 -7.124,2.418 -7.124,5.433997 0,2.548 2.6,4.654 5.694,4.654 2.626,0 4.55,-1.326 4.55,-3.172 0,-1.482 -1.43,-2.652 -3.224,-2.652 -1.014,0 -1.768,0.39 -2.184,1.092 l 0.104,0.078 c 0.52,-0.65 1.118,-0.988 2.028,-0.988 1.534,0 2.678,1.066 2.678,2.496 0,1.742 -1.612,2.938 -3.926,2.938 -2.912,0 -5.252,-2.08 -5.252,-4.602 0,-2.807997 2.964,-5.069997 6.682,-5.069997 1.69,0 3.25,0.546 4.394,1.534 0.52,0.442 1.092,1.066 1.69,1.819997 1.404,1.768 2.002,2.158 3.536,2.444 -1.898,1.404 -3.692,3.354 -5.2,5.746 -2.444,0.026 -3.77,0.286 -5.33,1.014 -0.832,0.416 -1.664,0.936 -2.34,1.508 -0.598,-0.182 -0.858,-0.234 -1.508,-0.234 -2.782,0 -5.38199995,1.872 -5.38199995,3.926 0,1.794 1.71599995,2.912 4.44599995,2.912 2.054,0 4.108,-0.702 6.084,-2.08 1.742,-1.196 3.146,-2.756 4.524,-5.148 l 0.676,-1.17 0.208,-0.338 c 0.052,0 1.69,0.182 2.418,0.104 l -0.078,0.208 c -0.598,1.586 -0.988,2.08 -1.638,2.626 l 0.13,0.13 c 0.442,-0.39 0.624,-0.546 0.988,-0.988 0.468,-0.572 0.494,-0.858 1.066,-1.794 l 0.156,-0.26 c 1.04,-0.572 1.56,-1.092 1.56,-1.56 0,-0.234 -0.13,-0.39 -0.364,-0.39 -0.598,0 -1.17,0.546 -1.69,1.612 -0.312,0.052 -1.742,0.052 -2.392,0 z m 5.018,-6.006 h -0.416 c 1.014,-0.832 2.548,-1.508 3.354,-1.508 0.182,0 0.312,0.052 0.312,0.182 0,0.182 -0.936,1.326 -3.25,1.326 z m -15.652,8.476 c 0.416,0 0.624,0.052 1.196,0.156 -1.066,1.04 -1.56,1.898 -1.56,2.756 0,0.806 0.468,1.3 1.118,1.3 0.494,0 1.014,-0.234 1.43,-0.676 0.494,-0.494 0.78,-1.118 0.78,-1.716 0,-0.754 -0.39,-1.3 -1.222,-1.716 1.924,-1.508 4.16,-2.34 6.422,-2.34 0.208,0 0.494,0 0.78,0.052 l -0.494,0.884 -1.118,2.002 c -2.054,3.666 -4.966,5.642 -8.32,5.642 -2.366,0 -3.92599995,-1.014 -3.92599995,-2.548 0,-1.976 2.36599995,-3.796 4.91399995,-3.796 z m 0,2.912 c 0,-0.832 0.442,-1.56 1.482,-2.574 0.624,0.364 0.806,0.728 0.806,1.378 0,1.17 -0.702,2.158 -1.482,2.158 -0.494,0 -0.806,-0.364 -0.806,-0.962 z m 14.586,-6.5 c 0,0.312 -0.364,0.702 -0.936,0.988 0.442,-0.858 0.624,-1.118 0.858,-1.118 0.052,0 0.078,0.052 0.078,0.13 z"
            style="stroke-width:0.264583"
            id="path841"
            class="letter eleven"
         />
         <path
            d="m 22.696023,115.22262 -0.208,-0.286 c -1.014,0.988 -2.366,1.846 -2.886,1.846 -0.182,0 -0.26,-0.078 -0.26,-0.208 0,-0.13 0.078,-0.234 0.286,-0.52 l 1.846,-2.496 h -1.092 l -1.118,1.482 c -0.728,0.988 -1.794,1.82 -2.34,1.82 -0.234,0 -0.338,-0.104 -0.338,-0.26 0,-0.104 0.104,-0.286 0.338,-0.572 l 1.794,-2.47 h -1.118 c -0.286,0.364 -0.442,0.546 -1.04,1.118 -0.364,0.364 -0.468,0.468 -0.832,0.78 l 0.13,0.156 0.416,-0.234 c -0.546,0.676 -0.702,0.91 -0.702,1.248 0,0.442 0.312,0.65 0.884,0.65 0.572,0 1.118,-0.208 1.898,-0.78 -0.026,0.104 -0.052,0.182 -0.052,0.26 0,0.338 0.234,0.52 0.702,0.52 1.56,0 3.692,-2.054 3.692,-2.054 z"
            style="stroke-width:0.264583"
            id="path843"
            class="letter twelve"
         />
         <path
            d="m 28.233996,110.12662 c 0.65,-0.598 2.886,-2.652 3.614,-3.536 0.676,-0.806 0.988,-1.404 0.988,-1.872 0,-0.364 -0.182,-0.572 -0.52,-0.572 -0.364,0 -0.832,0.26 -1.482,0.78 -0.65,0.52 -1.716,1.56 -2.418,2.314 -1.04,1.118 -1.898,2.21 -3.016,3.9 l -1.586,2.418 c -0.39,0.468 -0.572,0.65 -1.066,1.118 -0.416,0.39 -0.494,0.494 -0.832,0.78 l 0.13,0.156 0.572,-0.338 c 0,0 -0.65,0.936 -0.65,1.43 0,0.416 0.234,0.572 0.65,0.572 1.17,0 2.964,-1.482 3.614,-2.054 l -0.208,-0.286 c -0.936,0.91 -2.288,1.768 -2.756,1.768 -0.13,0 -0.208,-0.078 -0.208,-0.208 0,-0.078 0.026,-0.156 0.104,-0.286 l 2.314,-3.77 c 1.196,-0.936 1.664,-1.326 2.756,-2.314 z m 2.6,-3.276 c -1.196,1.404 -3.12,3.328 -4.784,4.706 l 2.21,-3.042 c 1.456,-1.898 2.158,-2.782 2.782,-3.328 0.338,-0.286 0.65,-0.468 0.806,-0.468 0.13,0 0.208,0.078 0.208,0.208 0,0.26 -0.468,0.988 -1.222,1.924 z"
            style="stroke-width:0.264583"
            id="path845"
            class="letter thirteen"
         />
         <path
            d="m 31.769988,110.12662 c 0.65,-0.598 2.886,-2.652 3.614,-3.536 0.676,-0.806 0.988,-1.404 0.988,-1.872 0,-0.364 -0.182,-0.572 -0.52,-0.572 -0.364,0 -0.832,0.26 -1.482,0.78 -0.65,0.52 -1.716,1.56 -2.418,2.314 -1.04,1.118 -1.898,2.21 -3.016,3.9 l -1.586,2.418 c -0.39,0.468 -0.572,0.65 -1.066,1.118 -0.416,0.39 -0.494,0.494 -0.832,0.78 l 0.13,0.156 0.572,-0.338 c 0,0 -0.65,0.936 -0.65,1.43 0,0.416 0.234,0.572 0.65,0.572 1.17,0 2.964,-1.482 3.614,-2.054 l -0.208,-0.286 c -0.936,0.91 -2.288,1.768 -2.756,1.768 -0.13,0 -0.208,-0.078 -0.208,-0.208 0,-0.078 0.026,-0.156 0.104,-0.286 l 2.314,-3.77 c 1.196,-0.936 1.664,-1.326 2.756,-2.314 z m 2.6,-3.276 c -1.196,1.404 -3.12,3.328 -4.784,4.706 l 2.21,-3.042 c 1.456,-1.898 2.158,-2.782 2.782,-3.328 0.338,-0.286 0.65,-0.468 0.806,-0.468 0.13,0 0.208,0.078 0.208,0.208 0,0.26 -0.468,0.988 -1.222,1.924 z"
            style="stroke-width:0.264583"
            id="path847"
            class="letter fourteen"
         />
         <path
            d="m 43.807959,112.49262 -0.078,0.208 c 1.118,0.65 1.976,0.936 3.172,0.936 2.678,0 5.044,-1.846 5.044,-3.9 0,-2.522 -2.626,-4.498 -5.928,-4.498 -4.264,0 -7.878,2.964 -7.878,6.474 0,3.458 3.224,5.772 8.008,5.772 3.094,0 5.668,-0.858 7.852,-2.6 4.108,-3.328 4.576,-6.838 6.578,-10.322 4.03,-1.17 7.176,-3.198 7.176,-4.524 0,-0.519997 -0.416,-0.831997 -1.118,-0.831997 -1.04,0 -2.73,0.805997 -4.264,2.027997 -1.092,0.884 -1.742,1.612 -2.938,3.224 -0.702,0.13 -0.962,0.156 -1.716,0.156 -3.38,0 -5.512,-1.43 -5.512,-3.718 0,-2.131997 1.872,-3.795997 4.29,-3.795997 1.378,0 2.366,0.468 3.38,1.586 l 0.182,-0.078 c -0.702,-1.222 -1.976,-1.872 -3.64,-1.872 -2.756,0 -5.044,1.872 -5.044,4.081997 0,2.444 2.626,4.134 6.344,4.134 0.65,0 0.884,-0.052 1.534,-0.13 l -3.042,5.382 c -2.574,4.55 -6.006,6.942 -10.348,6.942 -4.29,0 -7.15,-2.132 -7.15,-5.356 0,-3.458 3.198,-6.24 7.176,-6.24 2.99,0 5.226,1.716 5.226,4.056 0,2.106 -1.976,3.718 -4.472,3.718 -1.17,0 -2.106,-0.442 -2.834,-0.832 z m 23.088,-12.428 c 0,1.222 -2.808,3.094 -6.084,4.108 0.754,-1.326 1.482,-2.236 2.366,-2.99 1.066,-0.91 2.288,-1.533997 3.042,-1.533997 0.494,0 0.676,0.13 0.676,0.415997 z"
            style="stroke-width:0.264583"
            id="path849"
            class="letter fifteen"
         />
         <path
            d="m 62.579951,115.22262 -0.208,-0.286 c -1.014,0.988 -2.34,1.82 -2.86,1.82 -0.208,0 -0.312,-0.078 -0.312,-0.234 0,-0.104 0.104,-0.286 0.286,-0.572 0.208,-0.338 2.184,-3.042 2.86,-3.978 h 0.182 c 0.468,0 0.962,0 1.872,-0.078 l 0.104,-0.286 h -1.508 l -0.338,-0.026 1.846,-2.47 c 0,0 0.208,-0.286 0.208,-0.338 0,-0.052 -0.026,-0.078 -0.234,-0.078 -0.52,0 -0.702,0.13 -1.482,1.144 l -1.352,1.742 h -0.234 c -0.182,0 -0.546,0.026 -1.118,0.026 -0.624,0 -0.78,0.052 -1.248,0.078 l -0.208,0.286 h 0.364 1.846 0.312 c -1.014,1.404 -1.404,1.872 -1.768,2.288 -0.13,0.104 -0.286,0.26 -0.468,0.416 -0.39,0.364 -0.468,0.494 -0.832,0.78 l 0.156,0.182 0.286,-0.182 c -0.468,0.702 -0.546,0.884 -0.546,1.17 0,0.442 0.26,0.65 0.806,0.65 1.014,0 3.016,-1.56 3.588,-2.054 z"
            style="stroke-width:0.264583"
            id="path851"
            class="letter sixteen"
         />
         <path
            d="m 68.429907,115.22262 -0.208,-0.286 c -1.014,0.988 -2.392,1.82 -2.938,1.82 -0.156,0 -0.26,-0.078 -0.26,-0.182 0,-0.13 0.078,-0.234 0.286,-0.52 l 1.82,-2.496 h -0.806 l -0.702,0.702 c 0.026,-0.182 0.026,-0.26 0.026,-0.338 0,-0.312 -0.182,-0.468 -0.572,-0.468 -0.624,0 -1.794,0.572 -2.496,1.274 -0.598,0.572 -0.988,1.3 -0.988,1.794 0,0.468 0.286,0.754 0.728,0.754 0.52,0 1.014,-0.208 1.82,-0.78 -0.078,0.182 -0.13,0.26 -0.13,0.364 0,0.234 0.26,0.416 0.624,0.416 1.716,0 3.796,-2.054 3.796,-2.054 z m -3.432,-1.378 c 0.182,0 0.286,0.13 0.286,0.312 0,0.312 -0.312,0.858 -0.832,1.508 -0.494,0.624 -1.118,1.04 -1.508,1.04 -0.182,0 -0.286,-0.078 -0.286,-0.26 0,-0.39 0.52,-1.3 1.144,-1.872 0.416,-0.416 0.91,-0.728 1.196,-0.728 z"
            style="stroke-width:0.264583"
            id="path853"
            class="letter seventeen"
         />
         <path
            d="m 72.641871,115.22262 -0.208,-0.286 c -1.066,1.092 -2.366,1.846 -3.094,1.846 -0.442,0 -0.624,-0.156 -0.624,-0.468 0,-0.52 0.364,-1.196 0.91,-1.768 0.39,-0.442 0.806,-0.702 1.04,-0.702 0.104,0 0.182,0.052 0.182,0.156 0,0.078 -0.052,0.078 -0.078,0.104 -0.13,0.104 -0.208,0.234 -0.208,0.39 0,0.26 0.26,0.494 0.572,0.494 0.442,0 0.78,-0.364 0.78,-0.78 0,-0.468 -0.364,-0.754 -0.884,-0.754 -0.754,0 -1.872,0.546 -2.678,1.352 -0.52,0.52 -0.858,1.144 -0.858,1.638 0,0.598 0.39,0.832 1.222,0.832 1.482,0 3.198,-1.43 3.926,-2.054 z"
            style="stroke-width:0.264583"
            id="path855"
            class="letter eighteen"
         />
         <path
            d="m 75.709831,110.67262 c -0.416,0.078 -0.598,0.078 -0.91,0.078 -1.82,0 -3.12,-0.91 -3.12,-2.236 0,-1.04 0.598,-1.846 1.664,-2.106 l -0.052,-0.182 c -1.326,0.234 -2.21,1.118 -2.21,2.392 0,1.482 1.456,2.444 3.614,2.444 0.234,0 0.364,0 0.728,-0.026 -0.546,0.858 -0.676,1.118 -1.69,2.522 -0.26,0.364 -0.442,0.546 -1.04,1.118 -0.39,0.364 -0.494,0.494 -0.832,0.78 l 0.13,0.156 0.65,-0.39 -1.248,1.95 h 0.988 c 1.144,-1.794 2.574,-3.25 3.328,-3.25 0.156,0 0.208,0.078 0.208,0.234 0,0.39 -0.494,0.858 -1.04,1.014 -0.13,-0.052 -0.286,-0.052 -0.364,-0.052 -0.182,0 -0.286,0.078 -0.286,0.182 0,0.078 0.052,0.156 0.156,0.182 0.104,0 0.208,0.026 0.208,0.13 0,0.416 -0.104,0.962 -0.104,1.066 0,0.338 0.182,0.598 0.676,0.598 0.676,0 2.652,-1.326 3.484,-2.054 l -0.208,-0.286 c -0.494,0.52 -2.184,1.768 -2.652,1.768 -0.182,0 -0.234,-0.078 -0.234,-0.286 v -0.468 c 0,-0.286 -0.026,-0.442 -0.26,-0.572 1.066,-0.286 1.716,-0.728 1.716,-1.3 0,-0.39 -0.312,-0.624 -0.832,-0.624 -0.65,0 -1.04,0.234 -2.314,1.352 0.832,-1.196 2.288,-3.38 2.6,-3.952 2.184,-0.754 3.51,-1.534 5.018,-2.964 1.248,-1.144 1.768,-1.95 1.768,-2.704 0,-0.494 -0.312,-0.832 -0.78,-0.832 -1.17,0 -3.38,1.794 -5.018,3.978 z m 1.95,-1.56 c 0.91,-1.222 1.898,-2.444 2.106,-2.652 0.806,-0.91 1.768,-1.586 2.236,-1.586 0.208,0 0.364,0.182 0.364,0.416 0,0.468 -0.52,1.352 -1.222,2.184 -1.352,1.482 -2.782,2.418 -4.394,2.938 0.312,-0.468 0.39,-0.572 0.91,-1.3 z"
            style="stroke-width:0.264583"
            id="path857"
            class="letter nineteen"
         />
         <path
            d="m 86.889785,102.82062 c 0,1.508 1.274,2.626 2.99,2.626 1.898,0 3.926,-1.742 3.926,-3.172 0,-0.832 -0.442,-1.248 -1.404,-1.326 l -0.026,0.208 h 0.104 c 0.494,0 0.884,0.494 0.884,1.144 0,1.326 -1.612,2.834 -3.484,2.834 -1.482,0 -2.444,-0.806 -2.444,-2.158 0,-1.924 2.496,-4.497997 5.486,-4.497997 2.158,0 4.082,1.326 6.656,1.326 0.156,0 0.312,0 0.597995,-0.052 -0.389995,0.285997 -4.627995,3.301997 -7.773995,7.019997 -3.146,3.692 -3.926,5.902 -3.926,7.384 0,2.028 1.144,3.12 3.328,3.12 2.626,0 5.148,-1.976 5.174,-2.002 0.468,1.326 1.378,2.028 2.678,2.028 1.689995,0 3.613995,-0.806 6.265995,-2.678 2.288,-1.586 4.472,-3.458 6.214,-5.382 1.95,-2.106 3.666,-4.498 4.888,-6.812 2.808,-0.234 4.966,-1.482 6.058,-3.457997 l -0.13,-0.078 c -1.118,1.767997 -2.912,2.729997 -5.486,3.171997 l -0.312,0.052 c 0.572,-1.404 0.702,-1.95 0.702,-2.859997 0,-1.612 -0.858,-2.626 -2.262,-2.626 -1.508,0 -2.756,1.17 -2.756,2.6 0,1.611997 1.274,2.781997 3.458,3.171997 -3.874,7.93 -13.234,14.586 -16.379995,14.586 -1.17,0 -1.794,-0.598 -1.794,-1.794 0,-0.156 0,-0.364 0.052,-0.65 l 3.197995,-2.626 c 2.522,-2.028 7.722,-7.384 7.722,-9.906 0,-0.572 -0.26,-0.858 -0.78,-0.858 -2.106,0 -8.397995,5.72 -10.867995,11.024 -0.338,0.754 -0.572,1.716 -0.572,2.548 l 0.026,0.156 c -1.742,1.352 -3.614,2.106 -5.122,2.106 -1.3,0 -2.002,-0.728 -2.002,-2.08 0,-3.25 4.992,-10.114 11.023995,-15.157997 2.86,-0.468 4.576,-2.08 4.576,-2.418 0,-0.13 -0.156,-0.234 -0.364,-0.234 -0.442,0 -1.898,0.676 -2.938,1.378 l -1.43,0.962 c -0.26,0.026 -0.39,0.026 -0.546,0.026 -0.857995,0 -1.949995,-0.234 -2.157995,-0.286 l -1.612,-0.546 c -1.092,-0.364 -2.132,-0.546 -3.016,-0.546 -3.25,0 -6.448,2.469997 -6.448,4.757997 z m 11.336,11.206 c 0.234,-0.988 0.338,-1.352 0.936,-2.444 2.209995,-4.082 7.123995,-10.166 9.073995,-10.166 0.286,0 0.442,0.156 0.442,0.442 0,1.56 -2.886,5.044 -4.03,6.318 -2.392,2.652 -5.745995,5.304 -6.421995,5.85 z M 117.25778,98.764623 c 0,0.936 -0.234,1.793997 -0.832,3.275997 -1.612,-0.13 -2.652,-1.222 -2.652,-2.729997 0,-1.378 0.832,-2.418 1.898,-2.418 0.988,0 1.586,0.702 1.586,1.872 z m -15.86,0.546 0.676,-0.442 c 1.04,-0.676 1.95,-1.196 2.236,-1.196 0.078,0 0.13,0.052 0.13,0.104 0,0.312 -1.274,1.222 -3.042,1.56 z"
            style="stroke-width:0.264583"
            id="path859"
            class="letter twenty"
         />
         <path
            d="m 117.49176,115.22262 -0.208,-0.286 c -1.092,1.04 -2.34,1.82 -3.042,1.82 -0.39,0 -0.572,-0.156 -0.572,-0.52 0,-0.13 0.052,-0.208 0.078,-0.312 2.418,-1.196 2.86,-1.534 2.86,-2.08 0,-0.286 -0.234,-0.39 -0.572,-0.39 -0.78,0 -2.002,0.598 -2.756,1.404 -0.52,0.572 -0.754,1.092 -0.754,1.586 0,0.546 0.364,0.832 1.066,0.832 1.352,0 3.146,-1.404 3.9,-2.054 z m -1.612,-1.196 c 0,0.338 -0.702,0.832 -1.82,1.3 0.494,-0.754 1.248,-1.482 1.638,-1.482 0.156,0 0.182,0.078 0.182,0.182 z"
            style="stroke-width:0.264583"
            id="path861"
            class="letter twentyone"
         />
         <path
            d="m 118.55775,116.78262 c -0.286,0 -0.442,-0.156 -0.442,-0.39 0,-0.364 0.338,-1.04 1.3,-2.496 0.884,-1.326 1.066,-1.586 1.638,-2.314 l 0.572,-0.364 1.222,-0.832 c 3.25,-2.21 5.408,-4.472 5.408,-5.564 0,-0.442 -0.234,-0.676 -0.702,-0.676 -0.65,0 -1.482,0.624 -2.574,1.664 -1.248,1.196 -2.808,2.964 -3.848,4.264 l -1.352,1.872 -1.144,1.612 c -0.364,0.52 -0.598,0.65 -1.092,1.118 -0.39,0.39 -0.494,0.494 -0.832,0.78 l 0.13,0.156 0.65,-0.39 c -0.286,0.598 -0.416,0.936 -0.416,1.3 0,0.52 0.364,0.754 1.014,0.754 0.936,0 2.106,-0.65 2.808,-1.534 0.234,0.312 0.442,0.416 0.806,0.416 0.468,0 0.754,-0.182 1.586,-0.936 l -0.208,-0.286 c -0.702,0.65 -0.988,0.858 -1.3,0.858 -0.26,0 -0.416,-0.156 -0.416,-0.39 0,-0.13 0.078,-0.286 0.234,-0.546 0.312,-0.494 0.338,-0.598 0.338,-0.884 0,-0.338 -0.156,-0.52 -0.494,-0.52 -0.442,0 -0.676,0.364 -0.676,1.092 v 0.364 c -0.182,0.572 -1.222,1.872 -2.21,1.872 z m 2.99,-5.928 2.132,-2.73 c 1.794,-2.288 2.886,-3.484 3.51,-3.484 0.182,0 0.286,0.104 0.286,0.286 0,0.52 -0.988,1.82 -2.6,3.328 -0.936,0.884 -1.768,1.534 -2.678,2.158 -0.156,0.104 -0.364,0.26 -0.65,0.442 z"
            style="stroke-width:0.264583"
            id="path863"
            class="letter twentytwo"
         />
         <path
            d="m 133.92371,115.24862 c -1.586,0 -2.574,0.39 -2.574,1.014 0,0.806 1.924,1.352 4.758,1.352 2.548,0 4.68,-0.52 5.122,-0.598 0,0 2.704,0.442 3.822,0.442 3.38,0 5.928,-0.988 8.424,-3.328 2.496,-2.34 3.666,-4.836 3.666,-7.852 0,-2.548 -0.91,-4.238 -1.3,-4.836 2.6,-2.079997 4.576,-2.937997 6.682,-2.937997 1.144,0 1.82,0.234 2.808,0.962 l 0.104,-0.13 c -0.676,-0.78 -1.69,-1.144 -3.068,-1.144 -2.08,0 -4.94,1.17 -6.864,2.807997 -1.248,-1.533997 -2.366,-2.105997 -4.004,-2.781997 -1.274,-0.52 -2.912,-0.754 -4.524,-0.754 -6.76,0 -13.234,4.861997 -13.234,9.905997 0,2.99 2.002,4.81 5.252,4.81 1.95,0 4.108,-0.78 5.772,-2.08 1.56,-1.196 2.47,-2.756 2.47,-4.29 0,-1.69 -1.248,-2.808 -3.094,-2.808 -2.08,0 -4.056,1.586 -4.524,3.64 l 0.182,0.052 c 0.546,-1.95 2.418,-3.406 4.316,-3.406 1.56,0 2.626,0.962 2.626,2.34 0,1.456 -0.884,3.016 -2.392,4.238 -1.534,1.248 -3.536,2.002 -5.252,2.002 -2.548,0 -4.082,-1.404 -4.082,-3.77 0,-2.288 1.664,-5.278 4.16,-7.436 2.236,-1.949997 4.862,-2.859997 7.956,-2.859997 3.432,0 6.89,1.43 8.086,3.483997 -2.522,2.08 -3.458,3.198 -5.824,7.02 -1.95,3.146 -2.834,4.394 -4.056,5.564 -0.572,0.572 -1.196,1.092 -1.846,1.534 -0.65,0.442 -1.144,0.78 -2.21,1.17 0,0 -3.77,-1.326 -7.358,-1.326 z m 18.408,-9.594 c 0.988,-1.69 2.028,-3.042 3.172,-3.952 0.832,1.144 1.17,2.47 1.17,4.212 0,5.876 -5.304,11.206 -11.206,11.206 -1.274,0 -2.47,-0.13 -3.536,-0.416 1.222,-0.494 2.6,-1.3 3.692,-2.158 1.3,-1.014 2.756,-2.574 3.848,-4.056 0.858,-1.17 1.742,-2.938 2.86,-4.836 z m -18.044,9.906 c 1.872,0 3.952,0.416 6.292,1.248 -1.378,0.364 -2.782,0.52 -4.55,0.52 -2.47,0 -4.004,-0.39 -4.004,-0.988 0,-0.494 0.858,-0.78 2.262,-0.78 z"
            style="stroke-width:0.264583"
            id="path865"
            class="letter twentythree"
         />
         <path
            d="m 161.79567,115.22262 -0.208,-0.286 c -1.092,1.04 -2.34,1.82 -3.042,1.82 -0.39,0 -0.572,-0.156 -0.572,-0.52 0,-0.13 0.052,-0.208 0.078,-0.312 2.418,-1.196 2.86,-1.534 2.86,-2.08 0,-0.286 -0.234,-0.39 -0.572,-0.39 -0.78,0 -2.002,0.598 -2.756,1.404 -0.52,0.572 -0.754,1.092 -0.754,1.586 0,0.546 0.364,0.832 1.066,0.832 1.352,0 3.146,-1.404 3.9,-2.054 z m -1.612,-1.196 c 0,0.338 -0.702,0.832 -1.82,1.3 0.494,-0.754 1.248,-1.482 1.638,-1.482 0.156,0 0.182,0.078 0.182,0.182 z"
            style="stroke-width:0.264583"
            id="path867"
            class="letter twentyfour"
         />
         <path
            d="m 161.45765,115.45662 c -0.442,0.494 -0.624,0.728 -0.624,1.144 0,0.468 0.364,0.676 0.962,0.676 0.884,0 2.21,-0.676 3.198,-1.586 0.182,0.338 0.39,0.468 0.754,0.468 0.468,0 0.78,-0.182 1.56,-0.936 l -0.208,-0.286 c -0.624,0.65 -1.04,0.858 -1.274,0.858 -0.234,0 -0.416,-0.182 -0.416,-0.39 0,-0.13 0.052,-0.286 0.234,-0.546 0.312,-0.494 0.338,-0.598 0.338,-0.884 0,-0.338 -0.156,-0.546 -0.468,-0.546 -0.468,0 -0.702,0.39 -0.702,1.118 0,0.104 0,0.182 0.026,0.364 -0.156,0.39 -0.702,0.988 -1.404,1.43 -0.468,0.312 -1.014,0.52 -1.326,0.52 -0.182,0 -0.312,-0.078 -0.312,-0.26 0,-0.104 0.13,-0.312 0.364,-0.65 l 1.846,-2.392 h -1.118 c -0.286,0.364 -0.442,0.546 -1.04,1.118 -0.364,0.364 -0.468,0.468 -0.832,0.78 l 0.13,0.156 z"
            style="stroke-width:0.264583"
            id="path869"
            class="letter twentyfive"
         />
         <path
            d="m 171.38966,115.22262 -0.208,-0.286 c -1.092,1.04 -2.34,1.82 -3.042,1.82 -0.39,0 -0.572,-0.156 -0.572,-0.52 0,-0.13 0.052,-0.208 0.078,-0.312 2.418,-1.196 2.86,-1.534 2.86,-2.08 0,-0.286 -0.234,-0.39 -0.572,-0.39 -0.78,0 -2.002,0.598 -2.756,1.404 -0.52,0.572 -0.754,1.092 -0.754,1.586 0,0.546 0.364,0.832 1.066,0.832 1.352,0 3.146,-1.404 3.9,-2.054 z m -1.612,-1.196 c 0,0.338 -0.702,0.832 -1.82,1.3 0.494,-0.754 1.248,-1.482 1.638,-1.482 0.156,0 0.182,0.078 0.182,0.182 z"
            style="stroke-width:0.264583"
            id="path871"
            class="letter twentysix"
         />
         <path
            d="m 176.92765,110.12662 c 0.65,-0.598 2.886,-2.652 3.614,-3.536 0.676,-0.806 0.988,-1.404 0.988,-1.872 0,-0.364 -0.182,-0.572 -0.52,-0.572 -0.364,0 -0.832,0.26 -1.482,0.78 -0.65,0.52 -1.716,1.56 -2.418,2.314 -1.04,1.118 -1.898,2.21 -3.016,3.9 l -1.586,2.418 c -0.39,0.468 -0.572,0.65 -1.066,1.118 -0.416,0.39 -0.494,0.494 -0.832,0.78 l 0.13,0.156 0.572,-0.338 c 0,0 -0.65,0.936 -0.65,1.43 0,0.416 0.234,0.572 0.65,0.572 1.17,0 2.964,-1.482 3.614,-2.054 l -0.208,-0.286 c -0.936,0.91 -2.288,1.768 -2.756,1.768 -0.13,0 -0.208,-0.078 -0.208,-0.208 0,-0.078 0.026,-0.156 0.104,-0.286 l 2.314,-3.77 c 1.196,-0.936 1.664,-1.326 2.756,-2.314 z m 2.6,-3.276 c -1.196,1.404 -3.12,3.328 -4.784,4.706 l 2.21,-3.042 c 1.456,-1.898 2.158,-2.782 2.782,-3.328 0.338,-0.286 0.65,-0.468 0.806,-0.468 0.13,0 0.208,0.078 0.208,0.208 0,0.26 -0.468,0.988 -1.222,1.924 z"
            style="stroke-width:0.264583"
            id="path873"
            class="letter twentyseven"
         />
         <path
            d="m 177.86364,115.76862 c 0.208,0.286 0.416,0.39 0.754,0.39 0.468,0 0.728,-0.182 1.56,-0.936 l -0.208,-0.286 c -0.676,0.65 -0.962,0.858 -1.274,0.858 -0.234,0 -0.416,-0.182 -0.416,-0.39 0,-0.026 0,-0.13 0.052,-0.26 0.182,-0.494 0.208,-0.52 0.208,-0.754 0,-0.598 -0.364,-0.962 -1.014,-0.962 -0.546,0 -1.404,0.364 -2.132,0.91 -0.858,0.624 -1.43,1.456 -1.43,2.106 0,0.546 0.312,0.884 0.962,0.884 0.962,0 2.184,-0.78 2.938,-1.56 z m -0.52,-1.924 c 0.182,0 0.26,0.052 0.338,0.182 -0.13,0.182 -0.182,0.312 -0.182,0.52 0,0.078 0.026,0.208 0.052,0.39 -0.676,1.092 -1.586,1.872 -2.158,1.872 -0.26,0 -0.364,-0.104 -0.364,-0.364 0,-0.312 0.208,-0.78 0.572,-1.326 0.312,-0.442 1.222,-1.274 1.742,-1.274 z"
            style="stroke-width:0.264583"
            id="path875"
            class="letter twentyeight"
         />
         <path
            d="m 186.78163,115.22262 -0.208,-0.286 c -0.936,0.936 -2.262,1.768 -2.73,1.768 -0.182,0 -0.26,-0.026 -0.26,-0.182 0,-0.13 0.234,-0.442 0.676,-1.04 0.312,-0.39 0.832,-0.962 0.832,-1.456 0,-0.39 -0.234,-0.598 -0.702,-0.598 -0.52,0 -1.196,0.364 -1.456,0.598 -0.364,0.364 -0.91,1.014 -1.56,1.82 -0.39,0.494 -1.014,1.326 -1.794,2.444 l -4.342,6.526 c -1.742,2.6 -2.626,3.926 -3.432,4.836 -0.182,0.208 -0.364,0.312 -0.546,0.312 -0.104,0 -0.156,-0.078 -0.156,-0.208 0,-0.442 1.612,-3.042 4.004,-6.396 l 5.148,-7.072 c 1.3,-1.742 2.262,-2.886 2.47,-3.12 0.26,-0.234 1.118,-1.144 1.118,-1.56 0,-0.13 -0.078,-0.208 -0.234,-0.208 -0.676,0 -1.664,1.586 -1.82,1.768 l -2.392,2.288 0.13,0.156 0.65,-0.39 -0.52,0.65 c -2.574,3.224 -3.198,4.186 -5.304,7.046 -1.742,2.34 -2.392,3.302 -2.964,4.16 -0.91,1.352 -1.3,2.21 -1.3,2.782 0,0.468 0.312,0.754 0.832,0.754 0.858,0 1.846,-1.248 4.68,-5.564 0,0 3.328,-5.148 4.29,-6.526 l 1.768,-2.47 c 0.624,-0.806 1.118,-1.378 1.456,-1.716 0.312,-0.312 0.624,-0.442 0.832,-0.442 0.182,0 0.208,0.026 0.208,0.13 0,0.156 -0.13,0.39 -0.494,0.806 -0.91,1.014 -1.17,1.404 -1.17,1.768 0,0.442 0.26,0.676 0.728,0.676 0.806,0 2.08,-0.728 3.562,-2.054 z"
            style="stroke-width:0.264583"
            id="path877"
            class="letter twentynine"
         />
         <path
            d="m 190.86362,115.22262 -0.208,-0.286 c -1.092,1.04 -2.34,1.82 -3.042,1.82 -0.39,0 -0.572,-0.156 -0.572,-0.52 0,-0.13 0.052,-0.208 0.078,-0.312 2.418,-1.196 2.86,-1.534 2.86,-2.08 0,-0.286 -0.234,-0.39 -0.572,-0.39 -0.78,0 -2.002,0.598 -2.756,1.404 -0.52,0.572 -0.754,1.092 -0.754,1.586 0,0.546 0.364,0.832 1.066,0.832 1.352,0 3.146,-1.404 3.9,-2.054 z m -1.612,-1.196 c 0,0.338 -0.702,0.832 -1.82,1.3 0.494,-0.754 1.248,-1.482 1.638,-1.482 0.156,0 0.182,0.078 0.182,0.182 z"
            style="stroke-width:0.264583"
            id="path879"
            class="letter thirtyone"
         />
         <path
            d="m 195.4916,115.22262 -0.208,-0.286 c -1.014,0.988 -2.34,1.82 -2.912,1.82 -0.156,0 -0.234,-0.078 -0.234,-0.182 0,-0.208 1.014,-1.508 1.3,-1.924 0.182,-0.26 0.364,-0.546 0.364,-0.728 0,-0.312 -0.208,-0.494 -0.546,-0.494 -0.13,0 -0.364,0.026 -0.364,0.026 -0.052,0 -0.104,-0.026 -0.104,-0.104 0,-0.078 0.078,-0.13 0.13,-0.234 0.026,-0.052 0.052,-0.13 0.052,-0.26 0,-0.234 -0.182,-0.364 -0.416,-0.364 -0.416,0 -0.806,0.39 -0.806,0.832 0,0.182 0.052,0.312 0.182,0.39 -0.39,0.468 -0.728,0.754 -1.274,1.222 l 0.208,0.286 c 0.442,-0.364 0.91,-0.754 1.378,-1.378 0.234,0 0.468,-0.026 0.572,-0.026 0.078,0 0.13,0.026 0.13,0.156 0,0.104 -0.104,0.26 -0.624,0.754 -0.988,0.988 -1.3,1.404 -1.3,1.898 0,0.416 0.286,0.65 0.728,0.65 0.936,0 2.158,-0.858 3.744,-2.054 z"
            style="stroke-width:0.264583"
            id="path881"
            class="letter thirtytwo"
         />
      </g>
   </g>
</svg>
